<?xml version="1.0" standalone="no"?>
<!DOCTYPE svg PUBLIC "-//W3C//DTD SVG 20010904//EN"
 "http://www.w3.org/TR/2001/REC-SVG-20010904/DTD/svg10.dtd">
<svg version="1.0" xmlns="http://www.w3.org/2000/svg"
 width="700.000000pt" height="700.000000pt" viewBox="0 0 700.000000 700.000000"
 preserveAspectRatio="xMidYMid meet">
<metadata>
Created by potrace 1.14, written by Peter Selinger 2001-2017
</metadata>
<g transform="translate(0.000000,700.000000) scale(0.100000,-0.100000)"
fill="#000000" stroke="none">
<path d="M5666 6026 c-32 -14 -72 -38 -88 -53 -17 -15 -573 -571 -1237 -1235
l-1207 -1207 -180 186 c-98 102 -254 263 -345 357 -91 94 -202 208 -245 252
-70 72 -164 146 -164 128 0 -4 -7 0 -17 7 -11 10 -44 14 -102 14 -74 0 -94 -4
-142 -27 -56 -28 -139 -102 -139 -124 0 -6 -6 -17 -13 -23 -22 -18 -40 -114
-35 -178 10 -108 35 -145 238 -354 134 -138 340 -350 590 -609 135 -139 263
-272 285 -294 83 -85 158 -125 245 -130 62 -3 162 25 207 60 57 43 2723 2714
2749 2754 82 127 57 305 -57 412 -92 86 -227 112 -343 64z"/>
<path d="M730 3059 c-112 -17 -187 -64 -243 -155 -48 -78 -50 -94 -50 -659 0
-566 4 -655 33 -781 59 -255 171 -455 355 -639 180 -180 366 -286 620 -351 45
-11 128 -25 192 -30 100 -9 3647 -10 3733 -1 36 4 77 9 93 12 15 3 37 7 50 9
12 2 49 11 82 21 366 103 656 341 825 675 50 99 104 253 115 330 4 24 8 47 10
51 12 19 18 247 18 714 -1 577 -1 577 -59 665 -125 189 -434 182 -546 -12 -51
-87 -51 -85 -53 -688 -1 -394 -5 -580 -14 -613 -65 -266 -279 -465 -541 -505
-25 -3 -866 -6 -1870 -6 -2041 0 -1871 -6 -2030 72 -105 51 -231 177 -282 282
-72 146 -70 131 -73 765 -2 625 -2 621 -63 710 -61 88 -199 149 -302 134z"/>
</g>
</svg>
