<svg width="24" height="24" viewBox="0 0 24 24" fill="none" xmlns="http://www.w3.org/2000/svg">
<path fill-rule="evenodd" clip-rule="evenodd" d="M20.67 5.14499C20.8687 4.93173 20.9769 4.64966 20.9718 4.35821C20.9666 4.06675 20.8486 3.78868 20.6424 3.58256C20.4363 3.37644 20.1582 3.25837 19.8668 3.25323C19.5753 3.24808 19.2933 3.35627 19.08 3.55499L10.743 11.8905L7.9335 8.98649C7.831 8.87938 7.70833 8.79359 7.57256 8.73405C7.43679 8.67451 7.29059 8.64239 7.14236 8.63954C6.99414 8.63669 6.84681 8.66316 6.70885 8.71744C6.57089 8.77172 6.44502 8.85273 6.33847 8.95582C6.23192 9.0589 6.1468 9.18203 6.088 9.31813C6.0292 9.45422 5.99788 9.6006 5.99584 9.74884C5.9938 9.89708 6.02107 10.0443 6.07611 10.1819C6.13114 10.3196 6.21283 10.445 6.3165 10.551L9.921 14.277C10.0247 14.3846 10.1488 14.4704 10.2861 14.5295C10.4233 14.5885 10.5709 14.6197 10.7204 14.6211C10.8698 14.6225 11.018 14.5941 11.1563 14.5376C11.2946 14.4811 11.4203 14.3976 11.526 14.292L20.67 5.14499ZM3.75 14.625C3.75 14.3266 3.63147 14.0405 3.4205 13.8295C3.20952 13.6185 2.92337 13.5 2.625 13.5C2.32663 13.5 2.04048 13.6185 1.8295 13.8295C1.61853 14.0405 1.5 14.3266 1.5 14.625V18C1.5 19.1935 1.97411 20.3381 2.81802 21.182C3.66193 22.0259 4.80653 22.5 6 22.5H18C19.1935 22.5 20.3381 22.0259 21.182 21.182C22.0259 20.3381 22.5 19.1935 22.5 18V14.625C22.5 14.3266 22.3815 14.0405 22.1705 13.8295C21.9595 13.6185 21.6734 13.5 21.375 13.5C21.0766 13.5 20.7905 13.6185 20.5795 13.8295C20.3685 14.0405 20.25 14.3266 20.25 14.625V18C20.25 18.5967 20.0129 19.169 19.591 19.591C19.169 20.0129 18.5967 20.25 18 20.25H6C5.40326 20.25 4.83097 20.0129 4.40901 19.591C3.98705 19.169 3.75 18.5967 3.75 18V14.625Z" fill="#0c042a"/>
</svg>
