<svg width="154" height="154" viewBox="0 0 154 154" fill="none" xmlns="http://www.w3.org/2000/svg">
<path d="M111.249 75.8767C104.745 56.8714 105.262 58.2551 105.137 58.2727C93.6739 59.1019 52.8569 58.5381 52.5532 58.4077L44.8142 77.1308C44.8142 77.1308 103.573 76.8155 111.249 75.8767Z" fill="#DCBEFF"/>
<path d="M95.2989 31.6116C95.0841 36.9322 94.5671 48.6664 93.5754 53.8673C105.293 53.8206 98.3637 53.8405 100.649 53.8405C100.649 53.7032 101.62 34.1702 101.737 31.6476C101.659 31.6514 102.512 31.6583 95.2989 31.6116ZM61.6394 31.5019C61.4638 31.5134 54.5938 32.0004 53.27 32.0902C53.438 33.2652 55.0939 49.0821 56.7315 53.9939C57.0758 53.9724 55.8279 53.9939 65.7198 53.9671C65.6677 53.7469 63.5469 43.3128 61.6394 31.5019ZM64.5417 19.9663C64.8381 19.6699 65.2157 19.468 65.6268 19.3862C66.0379 19.3044 66.464 19.3463 66.8513 19.5067C67.2385 19.6671 67.5695 19.9387 67.8024 20.2872C68.0353 20.6357 68.1596 21.0455 68.1596 21.4647C68.1596 21.8838 68.0353 22.2936 67.8024 22.6421C67.5695 22.9906 67.2385 23.2622 66.8513 23.4226C66.464 23.583 66.0379 23.6249 65.6268 23.5431C65.2157 23.4613 64.8381 23.2594 64.5417 22.963C64.3449 22.7662 64.1888 22.5327 64.0822 22.2756C63.9757 22.0185 63.9209 21.7429 63.9209 21.4647C63.9209 21.1864 63.9757 20.9108 64.0822 20.6537C64.1888 20.3966 64.3449 20.1631 64.5417 19.9663ZM85.6716 19.273C85.9991 19.2546 86.0029 18.7422 85.6716 18.7614C80.4453 19.0551 76.1363 19.1449 71.4331 19.1648C71.3677 19.1684 71.3062 19.1969 71.2611 19.2445C71.2161 19.2921 71.191 19.3551 71.191 19.4206C71.191 19.4861 71.2161 19.5492 71.2611 19.5967C71.3062 19.6443 71.3677 19.6728 71.4331 19.6764C76.1821 19.6729 80.93 19.5384 85.6716 19.273ZM88.3837 20.1727C84.1107 20.4181 73.1205 21.0309 71.8933 21.0999C71.5666 21.1191 71.5628 21.6307 71.8933 21.6115C76.1662 21.373 87.1565 20.754 88.3837 20.6842C88.7104 20.6651 88.7104 20.1542 88.3837 20.1727Z" fill="#B26EE6"/>
<path d="M71.756 33.8305C71.7629 33.6004 71.9301 29.6887 71.96 29.0498C71.8833 29.0498 70.5572 29.0951 70.1292 29.1112C69.8064 30.0003 69.4962 30.8939 69.1988 31.7918C69.188 31.8295 69.1687 31.8642 69.1424 31.8933C69.1162 31.9225 69.0837 31.9453 69.0474 31.9601C69.011 31.9748 68.9718 31.9812 68.9327 31.9786C68.8936 31.976 68.8555 31.9646 68.8215 31.9452C68.5001 31.7059 67.2039 30.7533 67.0374 30.626C66.7759 30.4335 67.029 29.9878 67.2944 30.1834C68.8475 31.3278 68.6244 31.1659 68.8215 31.3071C68.8521 31.2304 69.1145 30.3943 69.5793 29.1257C68.26 29.1682 66.9408 29.2119 65.6216 29.2569C65.6285 29.2991 66.1976 33.4025 66.229 33.6287C66.9293 33.661 67.5881 33.6671 71.756 33.8305ZM72.8259 37.726C70.6354 40.5762 70.7681 40.4527 70.525 40.534C70.1415 40.6636 69.9367 40.376 68.8752 39.372C68.6366 39.1419 68.9979 38.7837 69.2364 39.0107C70.3041 40.0155 70.2887 40.0561 70.3869 40.0224C70.4268 40.0093 72.3887 37.4553 72.4141 37.4223C71.4753 37.4629 66.5082 37.6148 66.4085 37.6186C66.4239 37.7183 66.8273 40.626 67.016 41.9797C67.76 41.9936 67.0397 41.9797 73.293 42.0841C73.29 41.9682 73.3145 42.2697 72.8259 37.726ZM71.8449 48.5076C71.7964 48.5547 71.7315 48.581 71.6639 48.581C71.5964 48.581 71.5314 48.5547 71.4829 48.5076C71.0642 48.1187 70.6484 47.7307 70.2297 47.3426C69.9873 47.1194 70.3485 46.7573 70.5909 46.9805C70.9407 47.3073 71.295 47.6348 71.6448 47.9615C72.3831 47.1229 73.1202 46.2831 73.856 45.4419C72.9801 45.4642 76.4477 45.3652 67.6564 45.646C67.6787 45.7902 67.9364 47.6785 68.27 50.0117C69.0608 50.0462 73.7041 50.2157 73.7923 50.2188C73.7923 50.205 73.9381 46.8248 73.9672 46.0885C73.2623 46.8923 72.5483 47.6969 71.8449 48.5076Z" fill="#6DD3A8"/>
<path d="M65.9793 34.1212C66.056 34.1212 70.7814 34.3153 71.9987 34.3513C72.0656 34.3502 72.1295 34.323 72.1769 34.2757C72.2242 34.2283 72.2514 34.1644 72.2525 34.0975C72.3039 32.8266 72.4681 29.0131 72.4757 28.7899C72.4751 28.7227 72.4482 28.6585 72.4007 28.611C72.3532 28.5635 72.289 28.5366 72.2219 28.536C71.5876 28.5552 70.9486 28.5782 70.3143 28.5974C70.6633 27.6908 71.053 26.6737 71.4648 25.6782C71.5922 25.3714 71.0959 25.2441 70.9724 25.544C70.4202 26.8732 69.8779 28.3266 69.7652 28.6204C69.6885 28.6204 65.6004 28.7561 65.3304 28.763C65.2916 28.7642 65.2534 28.7741 65.2188 28.7919C65.1842 28.8097 65.1541 28.8349 65.1305 28.8659C65.1069 28.8968 65.0905 28.9326 65.0825 28.9707C65.0745 29.0088 65.0751 29.0481 65.0842 29.0859C65.8121 34.2792 65.7024 34.1396 65.9793 34.1212ZM69.5796 29.1289C69.16 30.2732 68.8548 31.2274 68.8218 31.3102L67.2947 30.1866C67.0293 29.991 66.7762 30.4366 67.0378 30.6291C67.6514 31.0855 68.5319 31.7321 68.8218 31.9483C68.8559 31.9676 68.8939 31.9789 68.933 31.9814C68.9721 31.9839 69.0112 31.9775 69.0475 31.9628C69.0838 31.948 69.1163 31.9253 69.1425 31.8962C69.1688 31.8672 69.1881 31.8325 69.1991 31.7949C69.5888 30.6245 69.8894 29.7701 70.1295 29.1143C70.5698 29.0982 71.869 29.0568 71.9603 29.053C71.9181 30.0746 71.767 33.48 71.7563 33.8336L66.234 33.6258L65.6265 29.2539C66.9416 29.213 68.2593 29.1706 69.5796 29.1266V29.1289ZM66.1258 37.1125C65.684 37.1278 65.9041 37.3533 66.5569 42.2928C66.6044 42.6287 66.5868 42.4047 73.584 42.5996C73.6514 42.5996 73.7159 42.5728 73.7635 42.5252C73.8112 42.4776 73.8379 42.413 73.8379 42.3457L73.2719 37.1501C73.8417 36.4153 74.4147 35.6805 74.9838 34.9457C75.184 34.688 74.822 34.323 74.6225 34.5845L72.8262 36.9L66.1258 37.1125ZM72.4151 37.4193C72.3898 37.4523 70.4271 40.0056 70.388 40.0194C70.2783 40.0547 70.2691 39.9818 69.2375 39.0077C68.999 38.7776 68.6377 39.142 68.8762 39.369C69.9332 40.3661 70.1349 40.6621 70.526 40.531C70.7699 40.4497 70.6465 40.5594 72.827 37.723C72.8347 37.7997 73.2872 42.0021 73.2979 42.0811C66.9465 41.9768 67.735 41.9898 67.0209 41.9768C66.8322 40.623 66.4288 37.7154 66.4134 37.6156C68.324 37.5574 72.3315 37.4231 72.4182 37.4231L72.4151 37.4193ZM74.2605 44.9151C74.1692 44.9151 67.6644 45.1306 67.3683 45.1383C66.9265 45.1575 67.1421 45.3469 67.7986 50.3193C67.8004 50.3459 67.8076 50.3718 67.8197 50.3954C67.8319 50.4191 67.8488 50.44 67.8693 50.4569C67.8899 50.4738 67.9137 50.4863 67.9392 50.4936C67.9648 50.501 67.9916 50.503 68.018 50.4996C68.0947 50.4996 72.8178 50.6936 74.0373 50.7297C74.1043 50.7285 74.1682 50.7014 74.2155 50.654C74.2629 50.6066 74.29 50.5428 74.2912 50.4758L74.5029 45.4681C74.9534 44.9568 75.4033 44.4439 75.8528 43.9295C76.0683 43.6841 75.7109 43.3221 75.4915 43.5683C74.1723 45.0838 74.3372 44.9143 74.2605 44.9151ZM73.7888 50.2188L68.2665 50.0118C68.2557 49.9351 67.6951 45.9053 67.6529 45.646C76.4342 45.363 73.005 45.4635 73.8525 45.442C73.1146 46.2811 72.3776 47.121 71.6412 47.9616C71.2915 47.6349 70.9371 47.3074 70.5874 46.9806C70.345 46.7574 69.9838 47.1194 70.2261 47.3426C70.6449 47.7307 71.0606 48.1188 71.4794 48.5077C71.5279 48.5547 71.5928 48.581 71.6604 48.581C71.728 48.581 71.7929 48.5547 71.8414 48.5077C72.5494 47.7001 73.255 46.897 73.9622 46.0886C73.9468 46.5465 73.8126 49.4718 73.7888 50.2188ZM76.4104 28.615C86.7494 28.6618 87.4137 28.6296 89.0029 29.0576C89.0674 29.0731 89.1355 29.063 89.1926 29.0292C89.2498 28.9955 89.2916 28.9408 89.3091 28.8768C89.3267 28.8128 89.3186 28.7444 89.2866 28.6863C89.2547 28.6281 89.2013 28.5846 89.1378 28.5651C87.3185 28.0781 86.1941 28.2039 76.4142 28.0996C76.3493 28.1041 76.2884 28.133 76.2438 28.1804C76.1992 28.2279 76.1741 28.2904 76.1737 28.3555C76.1732 28.4206 76.1973 28.4835 76.2412 28.5317C76.2851 28.5798 76.3455 28.6095 76.4104 28.615ZM88.2911 31.581C88.3239 31.5527 88.348 31.5158 88.3608 31.4744C88.3735 31.433 88.3743 31.3889 88.3631 31.3471C88.3519 31.3052 88.3291 31.2674 88.2974 31.238C88.2656 31.2085 88.2262 31.1887 88.1837 31.1806C84.8031 30.7684 81.3935 30.645 77.9919 30.8117C77.9236 30.8117 77.858 30.8388 77.8097 30.8871C77.7614 30.9355 77.7342 31.001 77.7342 31.0694C77.7342 31.1377 77.7614 31.2033 77.8097 31.2516C77.858 31.2999 77.9236 31.3271 77.9919 31.3271C87.0325 31.0533 88.0134 31.897 88.2911 31.581ZM88.7298 37.8503L76.6374 37.7115C76.572 37.7151 76.5104 37.7436 76.4654 37.7912C76.4204 37.8388 76.3953 37.9018 76.3953 37.9673C76.3953 38.0328 76.4204 38.0959 76.4654 38.1434C76.5104 38.191 76.572 38.2195 76.6374 38.2231L88.7298 38.3612C88.7976 38.3612 88.8625 38.3343 88.9104 38.2864C88.9583 38.2385 88.9852 38.1735 88.9852 38.1058C88.9852 38.038 88.9583 37.9731 88.9104 37.9252C88.8625 37.8773 88.7976 37.8503 88.7298 37.8503ZM78.7873 40.6C81.0798 40.5709 83.3724 40.5348 85.6603 40.5041C85.7257 40.5006 85.7873 40.472 85.8323 40.4245C85.8774 40.3769 85.9025 40.3139 85.9025 40.2483C85.9025 40.1828 85.8774 40.1198 85.8323 40.0722C85.7873 40.0246 85.7257 39.9961 85.6603 39.9926C83.3685 40.0232 81.0775 40.0552 78.7873 40.0884C78.7219 40.092 78.6603 40.1205 78.6153 40.1681C78.5702 40.2157 78.5451 40.2787 78.5451 40.3442C78.5451 40.4097 78.5702 40.4728 78.6153 40.5203C78.6603 40.5679 78.7219 40.5964 78.7873 40.6ZM78.7796 45.9191C82.1912 45.8562 85.6059 45.8271 89.0105 45.7772C89.0759 45.7736 89.1375 45.7451 89.1826 45.6975C89.2276 45.65 89.2527 45.5869 89.2527 45.5214C89.2527 45.4559 89.2276 45.3929 89.1826 45.3453C89.1375 45.2977 89.0759 45.2692 89.0105 45.2656C88.2029 45.2426 91.2693 45.2296 78.7796 45.4075C78.7142 45.4111 78.6527 45.4396 78.6076 45.4872C78.5626 45.5348 78.5375 45.5978 78.5375 45.6633C78.5375 45.7288 78.5626 45.7918 78.6076 45.8394C78.6527 45.887 78.7142 45.9155 78.7796 45.9191ZM78.334 49.1811C82.0156 48.8743 85.7109 48.7002 89.4071 48.681C89.4725 48.6774 89.534 48.6489 89.5791 48.6014C89.6241 48.5538 89.6492 48.4908 89.6492 48.4252C89.6492 48.3597 89.6241 48.2967 89.5791 48.2491C89.534 48.2015 89.4725 48.173 89.4071 48.1694C85.7107 48.1889 82.0197 48.3556 78.334 48.6695C78.0073 48.6941 78.0027 49.208 78.334 49.1811Z" fill="black"/>
<path d="M105.864 27.9346C105.864 27.8674 105.837 27.8031 105.789 27.7555C105.742 27.708 105.678 27.6811 105.61 27.6807C94.637 27.5611 95.4531 27.7252 95.4531 27.5189C95.5106 25.8054 95.7645 15.9573 95.7645 15.9573C95.7641 15.9013 95.7455 15.8469 95.7115 15.8025C95.6774 15.758 95.6298 15.7259 95.5758 15.7111C87.0484 14.3259 66.5007 15.3191 60.2942 15.8691C60.2573 15.8649 60.22 15.8684 60.1845 15.8794C60.1491 15.8903 60.1162 15.9084 60.0881 15.9326C60.06 15.9568 60.0371 15.9865 60.021 16.0199C60.0048 16.0533 59.9957 16.0897 59.9943 16.1268C59.936 19.4455 60.67 24.9978 61.1517 28.2767C57.678 28.4439 53.6352 28.6978 50.1515 29.092C50.0249 29.1073 49.8823 29.1963 49.8976 29.3459C52.5974 59.8921 52.3014 58.2868 52.5683 58.4118C52.8352 58.5368 93.2564 59.1381 105.152 58.2768C105.219 58.2754 105.283 58.2482 105.33 58.2009C105.378 58.1536 105.405 58.0898 105.406 58.0229C105.443 55.6521 105.902 26.5885 105.864 27.9346ZM60.499 16.3653C68.9213 15.7694 86.8835 14.8605 95.2491 16.1728C95.1325 23.3211 94.469 46.6154 93.0915 53.6787C93.0148 53.6787 66.3956 53.8374 66.2138 53.8436C60.3747 25.4787 60.499 16.2871 60.499 16.3653ZM95.2989 31.6116C102.263 31.6568 101.66 31.6514 101.737 31.6476C101.601 34.6143 100.65 53.75 100.649 53.8405C98.4175 53.8405 105.165 53.8213 93.5755 53.8673C94.568 48.6641 95.0865 36.8992 95.2989 31.6116ZM65.7199 53.9671C56.0489 53.9977 56.7338 54.0092 56.7085 53.9325C55.2512 50.2863 53.2824 32.1799 53.2701 32.0902C53.8837 32.0487 61.0481 31.5494 61.6395 31.5019C62.7792 38.9102 65.3778 52.496 65.7199 53.9671ZM104.872 57.7767C91.5483 58.6894 53.6367 57.9194 52.8874 57.9194C52.8804 57.8427 50.433 29.724 50.4253 29.5691C53.8967 29.1856 57.7179 28.9493 61.2215 28.7844C61.3296 29.5192 61.4408 30.2578 61.5567 30.9918L52.9664 31.5962C52.8398 31.6039 52.6933 31.7074 52.7125 31.8501C52.8659 33.2307 55.3003 54.5116 56.5666 54.5116C57.5875 54.5116 100.899 54.3536 100.899 54.3536C100.966 54.3532 101.03 54.3263 101.078 54.2788C101.125 54.2313 101.152 54.167 101.153 54.0997C102.249 30.2325 102.431 31.1299 101.991 31.1299C101.672 31.1299 96.0498 31.1061 95.3027 31.103C95.3411 30.1144 95.3794 29.1296 95.414 28.1417C107.807 28.1678 104.603 28.2445 105.333 28.2069C105.333 30.6413 104.859 57.486 104.872 57.7767Z" fill="black"/>
<path d="M77.1298 55.1996C75.4569 56.2733 76.6358 58.6303 78.4643 57.1423C80.5383 55.4741 78.7588 54.1572 77.1298 55.1996ZM78.6913 56.2036C77.0078 58.4631 75.898 55.9696 77.9182 55.4112C78.3907 55.2847 79.3571 55.3353 78.6913 56.2036ZM103.822 69.4924C103.932 69.7992 104.426 69.6689 104.314 69.3575C103.697 67.6313 102.98 65.9426 102.167 64.2999C102.74 64.2654 103.309 64.2347 103.882 64.1964C104.208 64.1734 104.213 63.6595 103.882 63.6848C103.228 63.727 102.571 63.7653 101.913 63.8037C101.451 62.8981 100.96 62.0079 100.44 61.1345C102.293 61.1169 103.463 61.1115 103.54 61.1115C103.605 61.1079 103.667 61.0794 103.712 61.0319C103.757 60.9843 103.782 60.9213 103.782 60.8557C103.782 60.7902 103.757 60.7272 103.712 60.6796C103.667 60.632 103.605 60.6035 103.54 60.5999C102.413 60.6076 100.136 60.6268 100.136 60.6268C99.9396 60.303 99.7383 59.9824 99.532 59.665C99.3556 59.3881 98.9131 59.6458 99.0903 59.9227C99.2398 60.1574 99.3855 60.3959 99.532 60.6306C98.4398 60.6383 97.3515 60.6498 96.2585 60.6575C96.109 60.3507 95.9594 60.0439 95.8129 59.7371C95.671 59.441 95.2315 59.698 95.3703 59.9948C95.4787 60.2172 95.5866 60.4402 95.694 60.6636L54.0203 61.0218C53.9526 61.0218 53.8876 61.0487 53.8397 61.0966C53.7918 61.1445 53.7649 61.2095 53.7649 61.2772C53.7649 61.3449 53.7918 61.4099 53.8397 61.4578C53.8876 61.5057 53.9526 61.5326 54.0203 61.5326C54.1392 61.5326 94.6133 61.1905 95.9364 61.1829C96.398 62.1391 96.8723 63.0893 97.3591 64.033C95.9126 64.0903 94.4663 64.135 93.0203 64.1672C92.9549 64.1708 92.8933 64.1993 92.8483 64.2469C92.8032 64.2945 92.7781 64.3575 92.7781 64.423C92.7781 64.4885 92.8032 64.5516 92.8483 64.5991C92.8933 64.6467 92.9549 64.6752 93.0203 64.6788C94.5543 64.6481 96.0882 64.6008 97.6222 64.5369C98.1716 65.5954 98.7369 66.6456 99.318 67.6869C99.3533 67.7435 99.4091 67.7841 99.4738 67.8001C99.5385 67.8161 99.6068 67.8064 99.6644 67.7728C99.722 67.7393 99.7642 67.6847 99.7822 67.6205C99.8001 67.5564 99.7924 67.4878 99.7606 67.4292C99.2237 66.4636 98.7029 65.491 98.1875 64.5147C99.3257 64.4648 100.465 64.4104 101.603 64.3452C102.449 66.0131 103.19 67.7322 103.822 69.4924ZM97.9298 64C97.441 63.0612 96.9654 62.1153 96.5032 61.1621C97.1283 61.1568 99.6563 61.1345 99.845 61.1315C100.378 62.0126 100.881 62.9118 101.353 63.8274C100.213 63.8996 99.0715 63.9571 97.9298 64Z" fill="black"/>
<path d="M34.4602 48.2845C33.5859 44.5385 31.9637 41.6116 29.9795 38.3496C28.0704 35.205 27.0381 33.2484 24.0368 30.9305C23.7753 30.7265 21.9061 29.7194 21.8892 29.5039C22.0744 31.7613 22.4519 33.9988 23.0175 36.1921C22.1187 36.2789 21.2608 36.6102 20.537 37.15C18.2727 34.8114 15.5181 33.004 12.4714 31.8578C14.8291 37.4653 16.7719 43.6304 15.4059 49.5615C14.8283 52.0512 14.1089 52.7698 13.3641 54.2961C12.2724 56.5637 12.0136 59.1433 12.6332 61.5826C10.9757 60.9628 9.98324 59.1903 9.75237 57.4362C9.63517 55.6675 9.80009 53.8915 10.2409 52.1746C10.6958 49.7816 11.1138 45.9873 8.8757 44.6205C8.32264 44.3053 7.67555 44.1969 7.04995 44.3146C6.42434 44.4324 5.86093 44.7686 5.46029 45.2633C4.14567 47.0005 6.63225 47.641 7.37777 48.4402C8.8596 50.0332 7.18525 52.4561 6.78565 53.9709C6.1245 56.502 7.65235 60.551 8.51598 62.1478C10.0162 64.9243 12.9929 66.6669 16.0701 67.3749C19.1473 68.0828 22.351 67.8903 25.4972 67.6403C27.1379 67.5999 28.7592 67.2758 30.2893 66.6823C35.995 64.0921 35.9052 54.4764 34.4602 48.2845Z" fill="#FFD35C"/>
<path d="M25.9447 43.6147C26.2345 43.5125 26.4909 43.3331 26.6862 43.0959C26.8815 42.8587 27.0083 42.5726 27.053 42.2686C27.3767 42.3767 28.0831 42.9704 28.8562 42.6191C28.887 42.6032 28.9143 42.5811 28.9364 42.5544C28.9584 42.5276 28.9748 42.4966 28.9845 42.4633C28.9942 42.43 28.9971 42.395 28.9929 42.3606C28.9887 42.3261 28.9775 42.2929 28.9601 42.2629C28.9427 42.2329 28.9194 42.2067 28.8915 42.186C28.8637 42.1653 28.8319 42.1505 28.7982 42.1424C28.7645 42.1343 28.7294 42.1332 28.6952 42.139C28.661 42.1449 28.6284 42.1577 28.5993 42.1765C27.9857 42.4565 27.2248 41.4771 26.7408 41.8069C26.408 42.0293 26.6779 42.8162 25.8105 43.1222C25.5029 43.2304 25.6325 43.7251 25.9447 43.6147ZM28.6898 37.6996C29.4 37.2287 30.1125 36.7647 30.8243 36.296C31.1219 36.0974 30.8327 35.6755 30.5666 35.8535C29.8548 36.3229 29.1438 36.7877 28.4321 37.2571C28.1368 37.4549 28.4236 37.8791 28.6898 37.6996ZM31.895 37.0845L29.3755 38.2956C29.3189 38.3308 29.2783 38.3867 29.2623 38.4513C29.2463 38.516 29.256 38.5843 29.2896 38.6419C29.3231 38.6995 29.3777 38.7417 29.4419 38.7597C29.506 38.7776 29.5746 38.7699 29.6332 38.7381C30.4723 38.3339 31.3144 37.9305 32.1527 37.5263C32.4266 37.402 32.2417 36.9265 31.895 37.0845ZM32.9719 38.5763C32.143 38.7577 31.3261 38.9903 30.5259 39.2727C30.4606 39.291 30.4053 39.3345 30.3721 39.3936C30.3388 39.4528 30.3305 39.5227 30.3488 39.5879C30.3671 39.6532 30.4106 39.7086 30.4697 39.7418C30.5288 39.7751 30.5987 39.7834 30.664 39.7651C31.4639 39.4812 32.2812 39.2486 33.1107 39.0687C33.4298 38.9997 33.2917 38.5065 32.9719 38.5763ZM17.1642 41.7187C15.3254 41.9057 13.5792 42.6173 12.1335 43.7688C11.8758 43.9728 12.2409 44.3341 12.4947 44.1301C13.838 43.064 15.4583 42.4048 17.1642 42.2302C17.4871 42.1957 17.4917 41.6849 17.1642 41.7187ZM16.964 43.4728C17.257 43.324 16.9985 42.8845 16.7063 43.0302C15.3322 43.724 14.13 44.7155 13.1873 45.9325C12.9473 46.2485 13.3776 46.5116 13.5486 46.2938C14.4639 45.1119 15.6305 44.1484 16.964 43.4728ZM17.899 44.2229C17.8804 44.1578 17.8368 44.1026 17.7778 44.0694C17.7188 44.0363 17.649 44.0277 17.5837 44.0457C16.308 44.5706 15.1621 45.3673 14.2258 46.3804C14.0026 46.6228 14.3639 46.984 14.5871 46.7417C16.6097 44.5519 18.0478 44.7529 17.899 44.2229ZM28.6645 61.3958C28.6942 61.3076 28.6984 61.2127 28.6765 61.1222C28.6547 61.0317 28.6077 60.9492 28.541 60.8842C28.3561 60.6764 28.0754 60.9034 28.1145 61.1343C28.3899 62.7825 28.8547 68.2673 28.4029 68.4076C28.1605 68.4797 27.7226 67.8102 27.6873 67.3385C27.6854 67.2833 27.6658 67.2302 27.6316 67.1869C27.5974 67.1435 27.5502 67.1123 27.497 67.0977C27.4437 67.083 27.3872 67.0858 27.3356 67.1055C27.2841 67.1252 27.2401 67.1609 27.2102 67.2073C26.9495 67.6276 27.0285 68.2044 26.8452 68.3578C26.6074 68.571 25.9762 67.9574 25.9332 67.1045C25.9307 67.044 25.907 66.9863 25.8663 66.9414C25.8256 66.8965 25.7704 66.8674 25.7104 66.8591C25.6504 66.8508 25.5894 66.8638 25.538 66.8959C25.4866 66.928 25.4481 66.9772 25.4293 67.0347C25.2439 67.7064 24.8036 68.2791 24.2021 68.6308C23.8362 68.8356 23.61 68.7735 23.6598 68.2964C24.6553 65.5138 24.8355 62.5048 24.1791 59.6233C24.1024 59.3042 23.6092 59.4392 23.6867 59.7583C24.3045 62.5308 24.1288 65.4213 23.1797 68.0985C22.9005 69.6747 24.6431 69.6249 25.6065 67.9183C25.8143 68.4491 26.1947 68.9338 26.7523 68.9154C27.2294 68.8993 27.3529 68.5649 27.4373 68.1921C27.6359 68.5449 28.0248 68.9453 28.4298 68.9154C29.2451 68.8533 29.0794 67.4765 29.0832 66.9534C29.0955 65.0926 28.9555 63.2338 28.6645 61.3958ZM35.8642 65.5997C35.6645 62.9601 35.0398 60.3701 34.0142 57.9298C33.8877 57.6299 33.3953 57.7603 33.5218 58.064C35.3381 62.3883 35.5306 66.7157 35.368 66.787C35.3028 66.8146 35.2299 66.7026 35.2031 66.6604C35.1463 66.5692 34.864 65.4072 34.8449 65.3297C34.8269 65.2713 34.7887 65.2212 34.7372 65.1883C34.6857 65.1554 34.6242 65.1419 34.5636 65.1502C34.5031 65.1585 34.4474 65.1881 34.4066 65.2336C34.3659 65.2791 34.3426 65.3376 34.341 65.3987C34.3287 65.7132 34.2297 66.7901 33.9682 66.9642C33.7067 67.1383 33.3416 65.8413 33.2986 65.6449C33.2828 65.5919 33.2503 65.5455 33.2059 65.5124C33.1616 65.4794 33.1077 65.4615 33.0524 65.4615C32.9971 65.4615 32.9433 65.4794 32.8989 65.5124C32.8545 65.5455 32.822 65.5919 32.8062 65.6449C32.7525 65.8988 32.1489 68.0065 31.7646 67.6798C31.398 67.3684 32.0868 65.6258 31.4578 59.7798C31.4233 59.4569 30.9117 59.453 30.9463 59.7798C31.2056 62.3095 31.2776 64.8549 31.1618 67.3952C31.2346 68.2052 31.8291 68.3923 32.254 68.0855C32.5502 67.8181 32.7683 67.4753 32.8852 67.0938C33.1644 66.4257 32.9573 66.4656 33.281 67.0171C33.722 67.7941 34.3732 67.61 34.6424 66.7325C34.6508 66.7095 34.6547 66.6865 34.6623 66.6673C34.6876 66.744 34.8403 67.2434 35.3043 67.2901C36.1603 67.3768 35.8995 66.0921 35.8642 65.5997ZM23.9221 41.6918C23.9221 41.5632 23.8711 41.44 23.7802 41.349C23.6893 41.2581 23.566 41.2071 23.4374 41.2071C23.3089 41.2071 23.1856 41.2581 23.0946 41.349C23.0037 41.44 22.9527 41.5632 22.9527 41.6918C22.9527 41.8204 23.0037 41.9437 23.0946 42.0346C23.1856 42.1255 23.3089 42.1765 23.4374 42.1765C23.566 42.1765 23.6893 42.1255 23.7802 42.0346C23.8711 41.9437 23.9221 41.8204 23.9221 41.6918ZM27.9335 40.3803C28.0621 40.3803 28.1854 40.3292 28.2763 40.2383C28.3672 40.1474 28.4183 40.0241 28.4183 39.8955C28.4183 39.767 28.3672 39.6437 28.2763 39.5528C28.1854 39.4618 28.0621 39.4108 27.9335 39.4108C27.805 39.4108 27.6817 39.4618 27.5908 39.5528C27.4998 39.6437 27.4488 39.767 27.4488 39.8955C27.4488 40.0241 27.4998 40.1474 27.5908 40.2383C27.6817 40.3292 27.805 40.3803 27.9335 40.3803ZM18.8638 57.9651C18.2155 57.2156 17.3044 56.7434 16.3182 56.6458C15.9869 56.6305 15.9907 57.1421 16.3182 57.1574C18.8186 57.2709 21.4847 61.6827 19.8065 65.5997C19.7758 65.6764 19.6531 65.8298 19.7528 65.8727C19.4567 65.7339 19.1952 66.1795 19.4951 66.3153C20.6018 66.8307 22.1542 61.3789 18.8638 57.9651Z" fill="black"/>
<path d="M126.507 49.7809C124.844 50.7333 123.42 52.0512 122.342 53.635C122.118 51.3616 123.395 49.1305 123.13 46.8617C119.861 51.1522 118.938 52.3388 118.495 53.431C117.979 51.3206 117.299 49.2539 116.46 47.2498C115.822 49.1811 115.271 51.139 114.807 53.1234C113.826 51.9876 112.744 50.9423 111.576 50.0002C111.51 51.8137 111.762 53.6247 112.322 55.3508H124.274C126.587 50.488 126.648 50.2786 126.507 49.7809Z" fill="#6DD3A8"/>
<path d="M111.406 55.3507V61.1499H124.722L125.507 55.3507H111.406Z" fill="#F55555"/>
<path d="M59.3831 79.0231C59.6904 78.8116 60.0368 78.6635 60.402 78.5875C60.7672 78.5115 61.1438 78.5092 61.51 78.5805C61.5146 78.4118 61.5184 78.2384 61.5299 78.0689C60.877 77.9514 60.2038 78.0388 59.6025 78.319C55.4937 80.1644 57.685 86.9676 63.814 84.596C63.6847 84.4636 63.5604 84.3265 63.4413 84.1849C58.2779 85.9973 56.536 80.8692 59.3831 79.0231ZM94.3203 77.2383C94.2666 77.4423 94.2084 77.6425 94.1508 77.8465C96.0522 77.0289 97.9359 79.0691 96.9994 81.9346C96.8851 82.4232 96.5885 82.8498 96.1703 83.1272C95.7521 83.4046 95.2437 83.5119 94.7491 83.4271C94.0205 83.4207 93.3064 83.2232 92.6782 82.8542C92.6406 83.0306 92.6053 83.2039 92.5708 83.3804C93.1066 83.664 93.6925 83.8404 94.2958 83.8996C95.5859 84.053 96.6689 83.7815 97.261 82.631C98.6776 79.8775 96.9603 76.5073 94.3203 77.2383ZM126.891 80.2173C126.537 75.0263 124.464 74.9826 124.161 76.663C123.942 75.7785 123.623 74.9216 123.211 74.109C122.25 72.3096 120.58 72.3134 120.838 76.1031C120.438 74.9408 119.878 73.8402 119.172 72.8335C118.211 71.66 117.042 71.9046 116.948 74.4802C116.939 75.5803 117.014 76.6795 117.171 77.7683C116.911 77.4386 116.55 77.2031 116.143 77.0976C115.736 76.9921 115.306 77.0224 114.918 77.1838C113.282 77.8266 113.691 79.3843 113.756 80.1682C113.932 83.5446 113.551 86.9269 112.629 90.1797C110.777 95.6445 104.231 97.5045 98.4559 97.7147C98.4212 97.7088 98.3857 97.7101 98.3515 97.7185C98.3173 97.7269 98.2852 97.7422 98.2571 97.7635C98.2291 97.7848 98.2057 97.8116 98.1884 97.8423C98.1711 97.8729 98.1603 97.9068 98.1566 97.9419C98.153 97.9769 98.1565 98.0123 98.167 98.0459C98.1776 98.0795 98.1949 98.1105 98.2179 98.1372C98.2409 98.1638 98.2692 98.1855 98.3009 98.2008C98.3326 98.2161 98.3671 98.2248 98.4023 98.2262C103.448 98.2884 109.863 96.3571 112.387 91.9569C113.858 89.3859 114.509 83.5506 114.279 80.2986C114.163 79.7419 114.141 79.1698 114.214 78.6058C114.297 78.3482 114.449 78.1178 114.653 77.9392C114.856 77.7606 115.104 77.6404 115.371 77.5912C115.637 77.542 115.912 77.5657 116.166 77.6598C116.42 77.7539 116.644 77.9149 116.814 78.1257C117.073 78.5201 117.279 78.9466 117.427 79.3943C117.447 79.4571 117.491 79.5098 117.549 79.5413C117.607 79.5728 117.674 79.5807 117.738 79.5634C117.802 79.546 117.856 79.5048 117.89 79.4483C117.924 79.3918 117.935 79.3243 117.92 79.2601C117.396 76.5058 117 71.1223 118.708 73.0866C119.713 74.2202 120.779 77.3587 121.181 78.7715C121.201 78.8343 121.245 78.887 121.302 78.9185C121.36 78.95 121.428 78.9579 121.492 78.9406C121.555 78.9232 121.61 78.882 121.644 78.8255C121.677 78.769 121.688 78.7015 121.674 78.6373C120.926 74.9189 121.393 71.8249 122.743 74.3368C123.497 76.0536 124.026 77.8612 124.316 79.7141C124.374 80.037 124.866 79.8982 124.808 79.5791C123.926 74.7287 125.963 75.4082 126.347 79.8599C127.339 91.3647 121.016 106.929 109.139 110.433C109.077 110.453 109.024 110.496 108.992 110.554C108.961 110.612 108.953 110.68 108.97 110.743C108.988 110.807 109.029 110.861 109.085 110.895C109.142 110.929 109.209 110.94 109.274 110.925C121.509 107.327 127.658 91.443 126.891 80.2173ZM34.6377 84.2386C34.5705 84.239 34.5061 84.2659 34.4586 84.3134C34.4111 84.3609 34.3842 84.4253 34.3838 84.4925C34.4022 85.1421 34.5691 85.7788 34.8716 86.354C34.9068 86.4105 34.9627 86.4511 35.0273 86.4671C35.092 86.4832 35.1604 86.4734 35.2179 86.4399C35.2755 86.4064 35.3177 86.3517 35.3357 86.2876C35.3537 86.2234 35.3459 86.1548 35.3141 86.0963C34.6975 84.9082 35.0979 84.2386 34.6377 84.2386ZM37.5139 82.9999C37.6911 83.6227 37.8644 84.2425 38.0408 84.8652C38.0591 84.9305 38.1026 84.9859 38.1617 85.0191C38.2208 85.0524 38.2907 85.0607 38.356 85.0424C38.4213 85.0241 38.4767 84.9806 38.5099 84.9215C38.5431 84.8624 38.5515 84.7925 38.5332 84.7272C38.3568 84.1036 38.1835 83.4847 38.0063 82.8619C37.988 82.7966 37.9445 82.7412 37.8854 82.708C37.8262 82.6748 37.7564 82.6664 37.6911 82.6847C37.6258 82.703 37.5704 82.7465 37.5372 82.8056C37.504 82.8647 37.4956 82.9346 37.5139 82.9999Z" fill="#FFCEB6"/>
<path d="M119.041 82.4038C119.024 82.469 119.033 82.5384 119.066 82.5972C119.099 82.6561 119.154 82.6997 119.218 82.719C119.709 82.8356 119.736 81.6353 119.634 81.1421C119.567 80.823 119.067 80.935 119.141 81.2809C119.21 81.6573 119.176 82.0455 119.041 82.4038ZM122.788 82.1422V80.5768C122.788 80.5095 122.761 80.4449 122.714 80.3973C122.666 80.3497 122.601 80.3229 122.534 80.3229C122.467 80.3229 122.402 80.3497 122.355 80.3973C122.307 80.4449 122.28 80.5095 122.28 80.5768V82.1422C122.28 82.2096 122.307 82.2741 122.355 82.3217C122.402 82.3694 122.467 82.3961 122.534 82.3961C122.601 82.3961 122.666 82.3694 122.714 82.3217C122.761 82.2741 122.788 82.2096 122.788 82.1422ZM46.8259 93.292C45.6291 89.4942 45.2398 85.4881 45.6831 81.5309C46.0589 79.1678 43.5186 78.1378 42.1219 80.3728C42.4076 78.8882 42.4284 77.3647 42.1833 75.8728C41.8765 74.7062 41.0673 74.5613 40.3563 75.2347C39.5425 76.0094 38.8484 77.7658 38.4488 78.7882C38.5803 77.8714 38.4731 76.9362 38.1374 76.073C37.7539 75.4495 36.9463 75.362 36.2568 76.4565C35.742 77.3379 35.3644 78.2925 35.1369 79.2875C34.8562 77.9069 33.6981 78.1784 33.1297 79.3642C30.5082 84.7592 33.6712 108.749 50.0104 113.572C50.0756 113.59 50.1452 113.581 50.2039 113.547C50.2626 113.514 50.3056 113.458 50.3234 113.393C50.3412 113.328 50.3323 113.259 50.2988 113.2C50.2653 113.141 50.2099 113.098 50.1447 113.08C33.7357 108.276 30.5756 82.222 34.0294 79.0029C34.1345 78.9531 34.3477 78.7836 34.4681 78.9339C34.8907 79.5245 34.61 81.5294 34.4873 82.245C34.4336 82.5648 34.9222 82.7052 34.9797 82.38C36.1141 75.6573 38.3223 74.1479 37.9449 78.9186C37.8851 79.7169 37.7773 80.5109 37.622 81.2962C37.6073 81.3605 37.6181 81.4279 37.6519 81.4844C37.6858 81.541 37.7402 81.5822 37.8038 81.5995C37.8674 81.6169 37.9352 81.6089 37.9931 81.5774C38.051 81.5459 38.0944 81.4933 38.1144 81.4305C39.9421 75.0836 42.3996 72.6338 41.7484 79.3419C41.6655 80.2073 41.5437 81.0685 41.3833 81.9229C41.3677 81.9874 41.3779 82.0555 41.4116 82.1126C41.4454 82.1698 41.5 82.2116 41.5641 82.2291C41.6281 82.2467 41.6964 82.2386 41.7546 82.2067C41.8128 82.1747 41.8562 82.1213 41.8757 82.0579C42.1462 81.2279 42.6132 80.4756 43.2371 79.865C43.4911 79.7064 43.791 79.6376 44.0887 79.6695C44.3864 79.7015 44.6648 79.8325 44.8793 80.0414C45.0602 80.256 45.1823 80.5138 45.2337 80.7897C45.285 81.0656 45.2639 81.3501 45.1723 81.6153C44.7596 85.5777 45.1535 89.5826 46.3304 93.3886C48.2732 98.3503 53.9022 100.325 59.2159 100.835C59.3348 100.665 59.4544 100.504 59.5695 100.342C54.4605 99.9433 48.7081 98.0197 46.8259 93.292Z" fill="#FFCEB6"/>
<path d="M93.9106 94.027C93.2721 94.6025 92.4517 94.9356 91.5927 94.9679C90.7336 95.0003 89.8905 94.73 89.2105 94.2042C89.0673 94.6992 88.7505 95.1261 88.3182 95.4065C87.8859 95.687 87.367 95.8023 86.8566 95.7313C84.765 95.5188 83.9504 93.4019 82.8759 93.5461C82.4157 93.6082 82.1089 94.027 81.8067 94.3806C81.2115 95.0837 80.4661 95.6442 79.6254 96.0209C78.7848 96.3977 77.8703 96.581 76.9494 96.5573C76.0285 96.5337 75.1246 96.3038 74.3044 95.8844C73.4842 95.4651 72.7685 94.867 72.2101 94.1344C71.382 94.9199 70.3465 95.4522 69.2257 95.6684C68.6096 95.7844 67.9722 95.6745 67.4304 95.3588C66.8887 95.0431 66.4788 94.5428 66.2759 93.9495C61.8327 96.5849 58.6927 101.093 56.249 105.663C69.0877 102.403 94.1545 102.87 99.3954 104.105C99.9185 104.231 100.433 104.389 100.937 104.579C100.537 103.117 98.7373 97.523 93.9106 94.027Z" fill="#FCAFB7"/>
<path d="M94.8145 91.3848C94.398 89.6974 91.6369 88.4841 92.5703 83.3805C93.2184 79.6529 95.6559 75.5948 94.5683 71.7268C92.4645 64.2395 80.5784 60.113 77.9376 61.8426C77.6718 62.0321 77.4569 62.2842 77.312 62.5767C77.1671 62.8692 77.0967 63.193 77.107 63.5193C74.8183 62.8888 71.9459 63.5384 69.6304 63.8889C69.1087 63.9294 68.6045 64.0954 68.1608 64.3729C67.8944 64.6014 67.6942 64.8973 67.5811 65.2296C67.468 65.5619 67.4463 65.9184 67.5181 66.262C65.8261 66.3387 63.8104 67.4424 62.426 68.385C61.2801 69.1658 59.0068 70.8195 59.1279 72.3964C59.2706 74.2502 61.3668 74.3845 62.7857 74.3653C62.3324 74.373 61.7357 76.7652 61.6552 77.1732C61.4117 78.4026 61.4467 79.6708 61.7576 80.8848C62.0684 82.0989 62.6472 83.2278 63.4515 84.1889C65.2232 86.2974 66.8262 86.203 67.5242 87.3735C68.7813 89.4896 65.4165 92.0176 66.3822 94.2695C66.649 94.7715 67.0673 95.1765 67.5776 95.4272C68.0879 95.6778 68.6642 95.7611 69.2246 95.6654C70.3443 95.4462 71.379 94.9143 72.209 94.1314C72.7673 94.8642 73.483 95.4624 74.3032 95.8818C75.1234 96.3012 76.0273 96.5312 76.9483 96.5548C77.8692 96.5785 78.7837 96.3951 79.6244 96.0183C80.465 95.6415 81.2104 95.0808 81.8056 94.3776C82.1055 94.024 82.413 93.6014 82.8748 93.5431C83.9486 93.3997 84.7531 95.5143 86.8555 95.7283C87.366 95.8001 87.8853 95.6852 88.3178 95.4046C88.7503 95.124 89.0669 94.6967 89.2094 94.2012C89.5903 94.497 90.0261 94.7141 90.4917 94.84C90.9572 94.966 91.4431 94.9982 91.9211 94.9348C92.3992 94.8715 92.8599 94.7138 93.2766 94.4709C93.6932 94.2281 94.0575 93.9049 94.3482 93.5201C94.5704 93.2163 94.7267 92.8695 94.807 92.5017C94.8873 92.134 94.8898 91.7536 94.8145 91.3848Z" fill="black"/>
<path d="M30.8756 91.2889C28.3369 91.2667 10.9791 91.1309 10.9791 91.1309C10.9137 91.1345 10.8521 91.163 10.8071 91.2106C10.762 91.2582 10.7369 91.3212 10.7369 91.3867C10.7369 91.4522 10.762 91.5153 10.8071 91.5628C10.8521 91.6104 10.9137 91.6389 10.9791 91.6425C12.7148 91.6525 30.8756 91.8005 30.8756 91.8005C30.941 91.7969 31.0026 91.7684 31.0476 91.7208C31.0927 91.6733 31.1178 91.6102 31.1178 91.5447C31.1178 91.4792 31.0927 91.4162 31.0476 91.3686C31.0026 91.321 30.941 91.2925 30.8756 91.2889ZM146.815 91.2889C144.275 91.2667 126.919 91.1309 126.919 91.1309C126.854 91.1345 126.792 91.163 126.747 91.2106C126.702 91.2582 126.677 91.3212 126.677 91.3867C126.677 91.4522 126.702 91.5153 126.747 91.5628C126.792 91.6104 126.854 91.6389 126.919 91.6425C128.654 91.6525 146.815 91.8005 146.815 91.8005C146.88 91.7969 146.942 91.7684 146.987 91.7208C147.032 91.6733 147.057 91.6102 147.057 91.5447C147.057 91.4792 147.032 91.4162 146.987 91.3686C146.942 91.321 146.88 91.2925 146.815 91.2889ZM149.323 86.1232C148.597 86.1232 129.426 85.9652 129.426 85.9652C129.361 85.9688 129.299 85.9973 129.254 86.0449C129.209 86.0925 129.184 86.1555 129.184 86.221C129.184 86.2866 129.209 86.3496 129.254 86.3972C129.299 86.4447 129.361 86.4732 129.426 86.4768C132.311 86.4952 149.323 86.6348 149.323 86.6348C149.388 86.6312 149.45 86.6027 149.495 86.5552C149.54 86.5076 149.565 86.4446 149.565 86.379C149.565 86.3135 149.54 86.2505 149.495 86.2029C149.45 86.1553 149.388 86.1268 149.323 86.1232ZM23.9834 86.6272C24.0488 86.6236 24.1104 86.5951 24.1554 86.5475C24.2005 86.4999 24.2256 86.4369 24.2256 86.3714C24.2256 86.3058 24.2005 86.2428 24.1554 86.1952C24.1104 86.1477 24.0488 86.1192 23.9834 86.1156C22.4333 86.1071 4.08689 85.9576 4.08689 85.9576C4.02147 85.9612 3.95991 85.9897 3.91487 86.0372C3.86983 86.0848 3.84473 86.1478 3.84473 86.2134C3.84473 86.2789 3.86983 86.3419 3.91487 86.3895C3.95991 86.4371 4.02147 86.4656 4.08689 86.4692C4.16436 86.4699 24.8256 86.6364 23.9834 86.6272ZM135.225 62.0811C131.41 62.2514 127.594 62.4002 123.782 62.5613C123.455 62.5774 123.451 63.0882 123.782 63.0729C127.598 62.9118 131.412 62.7517 135.225 62.5927C135.553 62.5766 135.553 62.0666 135.225 62.0811ZM133.096 60.4459C135.205 60.0517 135.945 60.5786 135.945 60.0578C135.944 59.9909 135.917 59.927 135.87 59.8796C135.823 59.8323 135.759 59.8051 135.692 59.8039C134.779 59.7394 133.861 59.7909 132.961 59.9573C132.896 59.9752 132.841 60.0181 132.808 60.0766C132.774 60.1351 132.766 60.2043 132.784 60.2691C132.802 60.3339 132.845 60.3889 132.903 60.4221C132.962 60.4552 133.031 60.4638 133.096 60.4459ZM14.7373 69.85C16.4545 69.6761 18.1826 69.6351 19.9061 69.7273C20.2336 69.7464 20.2336 69.2349 19.9061 69.2157C18.1826 69.1215 16.4544 69.1626 14.7373 69.3384C14.4137 69.3691 14.4106 69.8822 14.7373 69.85Z" fill="#A76C6C"/>
<path d="M102.911 109.419C87.6152 105.168 60.2359 108.418 55.1945 109.62C55.1784 109.624 55.1619 109.626 55.1454 109.627C54.8217 109.684 54.9606 110.178 55.2796 110.119C68.3637 107.795 89.6593 106.331 102.773 109.908C102.836 109.922 102.902 109.912 102.958 109.878C103.014 109.845 103.055 109.791 103.073 109.729C103.09 109.666 103.083 109.599 103.053 109.542C103.023 109.484 102.972 109.44 102.911 109.419Z" fill="black"/>
<path d="M106.168 108.066C104.35 106.107 101.994 104.728 99.3957 104.102C94.2016 102.881 68.4691 102.434 56.2494 105.66C52.4205 106.634 50.6871 107.544 50.7953 113.304C50.9249 120.297 54.3073 131.774 56.6413 138.351C56.7533 138.657 57.2449 138.523 57.1337 138.216C55.0444 132.423 52.2119 122.649 51.4994 116.142C50.6127 108.031 52.544 107.312 55.4609 106.423C66.7686 102.985 93.6908 103.316 99.1878 104.577C102.448 105.334 105.291 107.319 107.125 110.119C108.959 112.919 109.643 116.319 109.034 119.61C108.969 119.959 105.786 136.705 105.736 136.96C105.674 137.284 106.166 137.42 106.227 137.094C109.377 120.446 112.099 114.508 106.168 108.066ZM122.119 72.6884C121.536 71.2654 120.508 70.0697 119.188 69.2807C117.53 68.3028 115.953 68.1609 114.411 69.3497C111.869 71.304 111.573 74.9886 111.357 77.9308C111.253 79.3076 111.107 81.3539 112.68 81.9767C112.987 82.0963 113.119 81.6039 112.815 81.4843C111.645 81.0241 111.773 79.2884 111.842 78.2882C111.912 76.7558 112.114 75.2323 112.445 73.7346C112.974 71.5694 114.326 69.2293 116.426 69.0268L116.714 71.3922C115.947 71.4973 115.648 72.4154 115.769 73.108C115.905 73.8573 116.813 73.8029 116.911 73.2959C116.927 73.2313 116.918 73.1629 116.884 73.1052C116.851 73.0475 116.796 73.0051 116.732 72.9871C116.668 72.9691 116.599 72.9768 116.541 73.0087C116.482 73.0406 116.439 73.0941 116.419 73.1578C116.144 73.1578 116.163 72.1669 116.78 71.8885H116.811C116.839 71.9349 116.881 71.971 116.932 71.9911C116.982 72.0112 117.037 72.0142 117.09 71.9998C117.142 71.9854 117.188 71.9542 117.221 71.9111C117.253 71.868 117.271 71.8153 117.271 71.7611C117.159 70.8538 117.052 69.9426 116.94 69.0345C117.982 69.214 118.96 69.6571 119.782 70.3217C120.604 70.9863 121.242 71.8501 121.636 72.8311C121.75 73.1233 122.244 72.9929 122.119 72.6884Z" fill="black"/>
</svg>
